<?xml version="1.0" encoding="UTF-8" standalone="no"?><!DOCTYPE svg PUBLIC "-//W3C//DTD SVG 1.1//EN" "http://www.w3.org/Graphics/SVG/1.1/DTD/svg11.dtd"><svg width="100%" height="100%" viewBox="0 0 860 680" version="1.1" xmlns="http://www.w3.org/2000/svg" xmlns:xlink="http://www.w3.org/1999/xlink" xml:space="preserve" xmlns:serif="http://www.serif.com/" style="fill-rule:evenodd;clip-rule:evenodd;"><path d="M424.5,136l-4.5,-9l-4.5,9l9,0Z" style="fill:#3b82f6;fill-rule:nonzero;"/><path d="M424.5,171l-4.5,9l-4.5,-9l9,0Z" style="fill:#3b82f6;fill-rule:nonzero;"/><path d="M420,134.2l0,38.6" style="fill:none;fill-rule:nonzero;stroke:#3b82f6;stroke-width:2px;"/><g><path d="M420.455,242.766l-0,86.468" style="fill:none;fill-rule:nonzero;"/><path d="M424.955,251.766l-4.5,-9l-4.5,9l9,0Z" style="fill:#22c55e;fill-rule:nonzero;"/><path d="M424.955,320.234l-4.5,9l-4.5,-9l9,-0Z" style="fill:#22c55e;fill-rule:nonzero;"/><path d="M420.455,249.966l-0,72.068" style="fill:none;fill-rule:nonzero;stroke:#22c55e;stroke-width:2px;"/></g><path d="M412.836,319.143l-1.347,10.103l-7.274,-7.14l8.621,-2.963Z" style="fill:#22c55e;fill-rule:nonzero;"/><path d="M209.421,255.754c-0,-0 53.397,-0.769 95.558,3.044c36.589,3.308 66.162,1.163 80.073,18.168c7.566,9.25 16.034,26.846 21.535,39.281c1.019,2.306 1.856,4.353 2.531,6.102" style="fill:none;fill-rule:nonzero;stroke:#22c55e;stroke-width:2.03px;"/><path d="M803,23l-0,424c-0,4.415 -3.585,8 -8,8l-767,0c-4.415,0 -8,-3.585 -8,-8l-0,-424c-0,-4.415 3.585,-8 8,-8l767,0c4.415,0 8,3.585 8,8Z" style="fill:none;stroke:#1e293b;stroke-width:0.98px;stroke-dasharray:7.82,3.91;"/><g transform="matrix(7,0,0,7,573.622,75.7617)"></g><text x="531.478px" y="75.762px" style="font-family:'Menlo-Regular', 'Menlo', monospace;font-size:7px;fill:#7a8ba5;">shell exec</text><path d="M186.628,222.102l-3.062,6.898l-3.681,-6.588l6.743,-0.31Z" style="fill:#3b82f6;fill-rule:nonzero;"/><path d="M361.926,127c-0,0 2.488,5.284 -10.835,12.867c-31.693,18.039 -114.165,42.162 -114.165,44.133c-0,0 -40.546,14.267 -50.073,23.91c-3.047,3.084 -3.571,10.532 -3.534,15.696" style="fill:none;fill-rule:nonzero;stroke:#3b82f6;stroke-width:1.5px;stroke-dasharray:5,3;"/><path d="M627,488l0,170c0,4.415 -3.585,8 -8,8l-591,0c-4.415,0 -8,-3.585 -8,-8l0,-170c0,-4.415 3.585,-8 8,-8l591,0c4.415,0 8,3.585 8,8Z" style="fill:none;stroke:#2a1a1a;stroke-width:0.9px;stroke-dasharray:7.19,3.6;"/><g transform="matrix(15,0,0,15,89.0846,505)"></g><text x="34px" y="505px" style="font-family:'Menlo-Regular', 'Menlo', monospace;font-size:15px;fill:#3d4663;">T<tspan x="43.211px 52.422px 61.632px 70.843px 80.054px " y="505px 505px 505px 505px 505px ">arget</tspan></text><g><path d="M190,61l0,40c0,3.311 -2.689,6 -6,6l-128,0c-3.311,0 -6,-2.689 -6,-6l0,-40c0,-3.311 2.689,-6 6,-6l128,0c3.311,0 6,2.689 6,6Z" style="fill:#e6e6e6;stroke:#3d4663;stroke-width:6px;"/><g transform="matrix(13,0,0,13,181.521,77)"></g><text x="58.479px" y="77px" style="font-family:'Helvetica';font-size:13px;">HUMAN OPERA<tspan x="154.309px 162.021px 172.133px " y="77px 77px 77px ">TOR</tspan></text><text x="68.525px" y="92px" style="font-family:'Menlo-Regular', 'Menlo', monospace;font-size:9.5px;fill:#7a8ba5;">prompts + feedback</text></g><g><path d="M190,141l0,40c0,3.311 -2.689,6 -6,6l-128,0c-3.311,0 -6,-2.689 -6,-6l0,-40c0,-3.311 2.689,-6 6,-6l128,0c3.311,0 6,2.689 6,6Z" style="fill:#e6e6e6;stroke:#3d4663;stroke-width:3px;"/><text x="100.504px" y="151px" style="font-family:'Menlo-Regular', 'Menlo', monospace;font-size:8px;fill:#3d4663;">ru<tspan x="110.252px 115.126px 120px 124.874px 129.748px " y="151px 151px 151px 151px 151px ">n onc</tspan>e</text><text x="74.484px" y="166px" style="font-family:'Helvetica';font-size:13px;">session-start.sh</text><text x="74.244px" y="179px" style="font-family:'Menlo-Regular', 'Menlo', monospace;font-size:9.5px;fill:#7a8ba5;">launches daemons</text></g><path d="M122.21,129.58l-2.21,4.42l-2.21,-4.42l4.42,-0Z" style="fill:#3d4663;fill-rule:nonzero;"/><path d="M120,107l0,23.464" style="fill:none;fill-rule:nonzero;stroke:#3d4663;stroke-width:0.98px;"/><g><path d="M520,61l0,60c0,3.311 -2.689,6 -6,6l-188,0c-3.311,0 -6,-2.689 -6,-6l0,-60c0,-3.311 2.689,-6 6,-6l188,0c3.311,0 6,2.689 6,6Z" style="fill:#e6e6e6;stroke:#2563eb;stroke-width:3px;"/><text x="398.067px" y="71px" style="font-family:'Menlo-Regular', 'Menlo', monospace;font-size:8px;fill:#2563eb;">LL<tspan x="407.815px 412.689px 417.563px 422.437px 427.311px 432.185px 437.059px " y="71px 71px 71px 71px 71px 71px 71px ">M agent</tspan></text><g transform="matrix(16,0,0,16,506.695,89)"></g><text x="333.305px" y="89px" style="font-family:'Helvetica';font-size:16px;">Claude Code (or similar)</text><text x="357.086px" y="104px" style="font-family:'Menlo-Regular', 'Menlo', monospace;font-size:9.5px;fill:#7a8ba5;">CLAUDE.md instructions</text><g transform="matrix(9.5,0,0,9.5,368.525,118)"></g><g transform="matrix(9.5,0,0,9.5,371.384,118)"></g><text x="322.769px" y="118px" style="font-family:'Menlo-Regular', 'Menlo', monospace;font-size:9.5px;fill:#7a8ba5;">build → ﬂash → inspect → edit loop</text></g><path d="M201,76.5l-9,4.5l9,4.5l0,-9Z" style="fill:#3d4663;fill-rule:nonzero;"/><path d="M311,76.5l9,4.5l-9,4.5l0,-9Z" style="fill:#3d4663;fill-rule:nonzero;"/><path d="M199.2,81l113.6,0" style="fill:none;fill-rule:nonzero;stroke:#3d4663;stroke-width:2px;"/><g transform="matrix(8.5,0,0,8.5,301.057,75)"></g><text x="208.943px" y="75px" style="font-family:'Menlo-Regular', 'Menlo', monospace;font-size:8.5px;fill:#7a8ba5;">prompts, responses</text><g><path d="M520,186l0,50c0,3.311 -2.689,6 -6,6l-188,0c-3.311,0 -6,-2.689 -6,-6l0,-50c0,-3.311 2.689,-6 6,-6l188,0c3.311,0 6,2.689 6,6Z" style="fill:#e6e6e6;stroke:#0d9488;stroke-width:3px;"/><text x="393.193px" y="196px" style="font-family:'Menlo-Regular', 'Menlo', monospace;font-size:8px;fill:#0d9488;">Py<tspan x="402.941px 407.815px 412.689px 417.563px 422.437px 427.311px 432.185px 437.059px 441.933px " y="196px 196px 196px 196px 196px 196px 196px 196px 196px ">thon tool</tspan></text><text x="371.523px" y="213px" style="font-family:'Helvetica';font-size:16px;">esp_target.py</text><g transform="matrix(9.5,0,0,9.5,334.208,230)"></g><g transform="matrix(9.5,0,0,9.5,337.068,230)"></g><text x="334.208px" y="230px" style="font-family:'Menlo-Regular', 'Menlo', monospace;font-size:9.5px;fill:#7a8ba5;">ﬂash/read/write/decode/inspect</text></g><text x="427px" y="156px" style="font-family:'Menlo-Regular', 'Menlo', monospace;font-size:8.5px;fill:#7a8ba5;">shell exec</text><g><path d="M750,61l0,40c0,3.311 -2.689,6 -6,6l-148,0c-3.311,0 -6,-2.689 -6,-6l0,-40c0,-3.311 2.689,-6 6,-6l148,0c3.311,0 6,2.689 6,6Z" style="fill:#e6e6e6;stroke:#0d9488;stroke-width:1.5px;"/><text x="640.756px" y="69px" style="font-family:'Menlo-Regular', 'Menlo', monospace;font-size:8px;fill:#0d9488;">bu<tspan x="650.504px 655.378px 660.252px 665.126px 670px 674.874px 679.748px 684.622px 689.496px " y="69px 69px 69px 69px 69px 69px 69px 69px 69px ">ild syste</tspan>m</text><text x="638.925px" y="85px" style="font-family:'Helvetica';font-size:13px;">idf.py build</text><text x="601.366px" y="99px" style="font-family:'Menlo-Regular', 'Menlo', monospace;font-size:9.5px;fill:#7a8ba5;">CMake + gcc → .bin, .elf</text><path d="M213,235l0,40c0,3.311 -2.689,6 -6,6l-148,0c-3.311,0 -6,-2.689 -6,-6l0,-40c0,-3.311 2.689,-6 6,-6l148,0c3.311,0 6,2.689 6,6Z" style="fill:#e6e6e6;stroke:#0d9488;stroke-width:1.5px;"/><g transform="matrix(8,0,0,8,209.489,244)"></g><text x="58.453px" y="244px" style="font-family:'Menlo-Regular', 'Menlo', monospace;font-size:8px;fill:#0d9488;">on<tspan x="68.201px 73.075px 77.949px 82.823px 87.697px 92.571px 97.445px 102.319px 107.193px 112.067px 116.941px 121.815px 126.689px 131.563px 136.437px 141.311px 146.185px 151.059px 155.933px 160.807px 165.681px 170.555px 175.429px 180.303px 185.177px 190.051px 194.925px 199.799px 204.673px " y="244px 244px 244px 244px 244px 244px 244px 244px 244px 244px 244px 244px 244px 244px 244px 244px 244px 244px 244px 244px 244px 244px 244px 244px 244px 244px 244px 244px 244px ">-demand persistent RTT logger</tspan></text><text x="86.68px" y="262.199px" style="font-family:'Menlo-Regular', 'Menlo', monospace;font-size:8px;fill:#ccc;">vv</text><g transform="matrix(13,0,0,13,169.496,261)"></g><text x="96.504px" y="261px" style="font-family:'Helvetica';font-size:13px;">rtt_reader<tspan x="152.154px 155.766px " y="261px 261px ">.p</tspan>y</text></g><path d="M583.25,77.625l6.75,3.375l-6.75,3.375l0,-6.75Z" style="fill:#3b82f6;fill-rule:nonzero;"/><path d="M520,81l64.6,0" style="fill:none;fill-rule:nonzero;stroke:#3b82f6;stroke-width:1.5px;"/><g><path d="M733,134l0,50c0,2.208 -1.792,4 -4,4l-118,0c-2.208,0 -4,-1.792 -4,-4l0,-50c0,-2.208 1.792,-4 4,-4l118,0c2.208,0 4,1.792 4,4Z" style="fill:#e6e6e6;stroke:#3d4663;stroke-width:1.5px;stroke-dasharray:6,4.5;"/><text x="652.842px" y="146px" style="font-family:'Menlo-Regular', 'Menlo', monospace;font-size:9.5px;">build/</text><g transform="matrix(9,0,0,9,632.617,158)"></g><g transform="matrix(9,0,0,9,635.326,158)"></g><text x="621.78px" y="158px" style="font-family:'Menlo-Regular', 'Menlo', monospace;font-size:9px;fill:#7a8ba5;">- ﬂasher_args.json</text><text x="621.78px" y="169px" style="font-family:'Menlo-Regular', 'Menlo', monospace;font-size:9px;fill:#7a8ba5;">- project.bin</text><text x="621.78px" y="180px" style="font-family:'Menlo-Regular', 'Menlo', monospace;font-size:9px;fill:#7a8ba5;">- project.elf</text></g><path d="M672.25,125.5l-2.25,4.5l-2.25,-4.5l4.5,0Z" style="fill:#4a5568;fill-rule:nonzero;"/><path d="M670,107l0,19.4" style="fill:none;fill-rule:nonzero;stroke:#4a5568;stroke-width:1px;stroke-dasharray:3,3;"/><path d="M524.513,196.069l-3.513,3.586l4.977,0.659l-1.464,-4.245Z" style="fill:#4a5568;fill-rule:nonzero;"/><path d="M524.396,198.484c15.944,-5.498 82.604,-28.484 82.604,-28.484" style="fill:none;fill-rule:nonzero;stroke:#4a5568;stroke-width:1px;stroke-dasharray:2.99,2.99;"/><text x="527.206px" y="212px" style="font-family:'Menlo-Regular', 'Menlo', monospace;font-size:8.5px;fill:#7a8ba5;">reads</text><g><path d="M733,204l0,50c0,2.208 -1.792,4 -4,4l-118,0c-2.208,0 -4,-1.792 -4,-4l0,-50c0,-2.208 1.792,-4 4,-4l118,0c2.208,0 4,1.792 4,4Z" style="fill:#e6e6e6;stroke:#3d4663;stroke-width:1.73px;stroke-dasharray:6.92,5.19;"/><text x="638.543px" y="238px" style="font-family:'Menlo-Regular', 'Menlo', monospace;font-size:9.5px;">esp32c3.svd</text><g transform="matrix(9.5,0,0,9.5,690.018,214)"></g><g transform="matrix(9.5,0,0,9.5,692.878,214)"></g><g transform="matrix(9.5,0,0,9.5,730.055,214)"></g><text x="609.945px" y="214px" style="font-family:'Menlo-Regular', 'Menlo', monospace;font-size:9.5px;">esp_target_conﬁg.json</text><g transform="matrix(9.5,0,0,9.5,721.475,226)"></g><text x="618.525px" y="226px" style="font-family:'Menlo-Regular', 'Menlo', monospace;font-size:9.5px;">chips/esp32c3.json</text><text x="615.665px" y="250px" style="font-family:'Menlo-Regular', 'Menlo', monospace;font-size:9.5px;fill:#7a8ba5;">(memory map + regs)</text></g><path d="M525.655,218.276l-4.655,1.816l4.246,2.635l0.409,-4.451Z" style="fill:#4a5568;fill-rule:nonzero;"/><path d="M524.561,220.419c16.232,1.493 82.439,7.581 82.439,7.581" style="fill:none;fill-rule:nonzero;stroke:#4a5568;stroke-width:0.99px;stroke-dasharray:2.98,2.98;"/><g><path d="M750,286l0,40c0,3.311 -2.689,6 -6,6l-148,0c-3.311,0 -6,-2.689 -6,-6l0,-40c0,-3.311 2.689,-6 6,-6l148,0c3.311,0 6,2.689 6,6Z" style="fill:#e6e6e6;stroke:#0d9488;stroke-width:1.5px;"/><g transform="matrix(8,0,0,8,701.623,294)"></g><text x="638.319px" y="294px" style="font-family:'Menlo-Regular', 'Menlo', monospace;font-size:8px;fill:#0d9488;">on<tspan x="648.067px 652.941px 657.815px 662.689px 667.563px 672.437px 677.311px 682.185px 687.059px 691.933px 696.807px " y="294px 294px 294px 294px 294px 294px 294px 294px 294px 294px 294px ">-demand GDB</tspan></text><text x="614.728px" y="310px" style="font-family:'Helvetica';font-size:13px;">riscv32-esp-elf-gdb</text><text x="607.086px" y="325px" style="font-family:'Menlo-Regular', 'Menlo', monospace;font-size:9.5px;fill:#7a8ba5;">batch scripts, symbols</text></g><path d="M582.659,299.528l6.701,3.472l-6.798,3.277l0.097,-6.749Z" style="fill:#3b82f6;fill-rule:nonzero;"/><path d="M500,127c0,0 7.41,-0.71 7.396,4.648c-0.035,13.39 46.991,7.808 57.604,35.352c7.936,20.596 5.546,119.267 6.073,129.91c0.218,4.419 7.573,5.679 12.887,6.012" style="fill:none;fill-rule:nonzero;stroke:#3b82f6;stroke-width:1.5px;stroke-dasharray:5,3;"/><g transform="matrix(0.944897,0.327368,-0.327368,0.944897,76.8792,-159.348)"><g transform="matrix(7,0,0,7,553.929,148.696)"></g><text x="511.785px" y="148.696px" style="font-family:'Menlo-Regular', 'Menlo', monospace;font-size:7px;fill:#7a8ba5;">shell exec</text></g><g transform="matrix(0.926807,-0.375538,0.375538,0.926807,-42.8849,125.433)"><g transform="matrix(7,0,0,7,342.487,172.733)"></g><text x="300.343px" y="172.733px" style="font-family:'Menlo-Regular', 'Menlo', monospace;font-size:7px;fill:#7a8ba5;">shell exec</text></g><g><path d="M560,336l0,93c0,3.311 -2.689,6 -6,6l-268,0c-3.311,0 -6,-2.689 -6,-6l0,-93c0,-3.311 2.689,-6 6,-6l268,0c3.311,0 6,2.689 6,6Z" style="fill:#e6e6e6;stroke:#22c55e;stroke-width:3px;"/><text x="378.571px" y="394px" style="font-family:'Menlo-Regular', 'Menlo', monospace;font-size:8px;fill:#22c55e;">pe<tspan x="388.319px 393.193px 398.067px 402.941px 407.815px 412.689px 417.563px 422.437px 427.311px 432.185px 437.059px 441.933px 446.807px 451.681px 456.555px " y="394px 394px 394px 394px 394px 394px 394px 394px 394px 394px 394px 394px 394px 394px 394px ">rsistent daemon</tspan></text><text x="384.987px" y="379px" style="font-family:'Helvetica';font-size:15px;">OpenOCD</text><text x="466.734px" y="345px" style="font-family:'Menlo-Regular', 'Menlo', monospace;font-size:8px;fill:#7a8ba5;">Tcl:6666</text><path d="M459,338l0,8c0,1.656 -1.344,3 -3,3l-70,0c-1.656,0 -3,-1.344 -3,-3l0,-8c0,-1.656 1.344,-3 3,-3l70,0c1.656,0 3,1.344 3,3Z" style="fill:#e6e6e6;stroke:#22c55e;stroke-width:0.8px;"/><text x="399.326px" y="345px" style="font-family:'Menlo-Bold', 'Menlo', monospace;font-weight:700;font-size:9px;fill:#22c55e;">commands</text><path d="M459,415l0,8c0,1.656 -1.344,3 -3,3l-70,0c-1.656,0 -3,-1.344 -3,-3l0,-8c0,-1.656 1.344,-3 3,-3l70,0c1.656,0 3,1.344 3,3Z" style="fill:#e6e6e6;stroke:#ef4444;stroke-width:0.8px;"/><g transform="matrix(9,0,0,9,442.674,422)"></g><text x="399.326px" y="422px" style="font-family:'Menlo-Bold', 'Menlo', monospace;font-weight:700;font-size:9px;fill:#ef4444;">USB-JTAG</text><text x="492.734px" y="407px" style="font-family:'Menlo-Regular', 'Menlo', monospace;font-size:8px;fill:#7a8ba5;">GDB:3333</text><path d="M551,415l0,8c0,1.656 -1.344,3 -3,3l-70,0c-1.656,0 -3,-1.344 -3,-3l0,-8c0,-1.656 1.344,-3 3,-3l70,0c1.656,0 3,1.344 3,3Z" style="fill:#e6e6e6;stroke:#eab308;stroke-width:0.8px;"/><text x="488.617px" y="423px" style="font-family:'Menlo-Bold', 'Menlo', monospace;font-weight:700;font-size:9px;fill:#eab308;">RSP debug</text></g><path d="M274.5,367.75l4.5,2.25l-4.5,2.25l0,-4.5Z" style="fill:#3d4663;fill-rule:nonzero;"/><path d="M190,161l50,0c6.667,0 10,3.333 10,10l0,189c0,6.667 3.333,10 10,10l15.4,0" style="fill:none;fill-rule:nonzero;stroke:#3d4663;stroke-width:1px;"/><text x="196.061px" y="158px" style="font-family:'Menlo-Regular', 'Menlo', monospace;font-size:8.5px;fill:#7a8ba5;">launches</text><g transform="matrix(8.5,0,0,8.5,170,304)"></g><text x="139.295px" y="304px" style="font-family:'Menlo-Regular', 'Menlo', monospace;font-size:8.5px;fill:#7a8ba5;">writes</text><g transform="matrix(8.5,0,0,8.5,256,406)"></g><text x="225.295px" y="406px" style="font-family:'Menlo-Regular', 'Menlo', monospace;font-size:8.5px;fill:#7a8ba5;">writes</text><text x="429px" y="282px" style="font-family:'Menlo-Bold', 'Menlo', monospace;font-weight:700;font-size:9px;fill:#22c55e;">:6666</text><g transform="matrix(8.5,0,0,8.5,490.409,294)"></g><text x="429px" y="294px" style="font-family:'Menlo-Regular', 'Menlo', monospace;font-size:8.5px;fill:#7a8ba5;">Tcl commands</text><path d="M667.791,339.549l-0.497,-6.779l-5.126,4.465l5.623,2.314Z" style="fill:#eab308;fill-rule:nonzero;"/><path d="M567.983,421.849l-6.277,-2.608l5.853,-3.457l0.424,6.065Z" style="fill:#eab308;fill-rule:nonzero;"/><path d="M665.442,337.268c-4.232,10.031 -15.063,34.316 -25.607,46.617c-10.553,12.311 -19.954,19.457 -34.604,26.516c-11.65,5.613 -29.998,7.765 -38.673,8.5" style="fill:none;fill-rule:nonzero;stroke:#eab308;stroke-width:1.35px;stroke-dasharray:5.4,2.7;"/><text x="646.454px" y="397px" style="font-family:'Menlo-Bold', 'Menlo', monospace;font-weight:700;font-size:9px;fill:#eab308;">:3333</text><text x="642.089px" y="410px" style="font-family:'Menlo-Regular', 'Menlo', monospace;font-size:8.5px;fill:#7a8ba5;">GDB RSP</text><g><g><path d="M208,326l-0,32c-0,2.208 -1.792,4 -4,4l-143,0c-2.208,0 -4,-1.792 -4,-4l-0,-32c-0,-2.208 1.792,-4 4,-4l143,0c2.208,0 4,1.792 4,4Z" style="fill:#e6e6e6;stroke:#3d4663;stroke-width:1.63px;stroke-dasharray:6.5,4.88;"/><g transform="matrix(1,0,0,0.907285,0,31.3259)"><text x="72.778px" y="337.873px" style="font-family:'Menlo-Regular', 'Menlo', monospace;font-size:11.022px;">.esp-agent/rtt.log</text></g><g transform="matrix(1,0,0,0.860927,0,49.3709)"><g transform="matrix(10.4538,0,0,10.4538,94.7375,355)"></g><g transform="matrix(10.4538,0,0,10.4538,97.8844,355)"></g><g transform="matrix(10.4538,0,0,10.4538,170.262,355)"></g><text x="94.738px" y="355px" style="font-family:'Menlo-Regular', 'Menlo', monospace;font-size:10.454px;fill:#7a8ba5;">ﬁrmware logs</text></g></g></g><path d="M314.513,107.277l4.487,-2.277l-4.513,-2.223l0.026,4.5Z" style="fill:#4a5568;fill-rule:nonzero;"/><path d="M315.4,105.021c-24.179,0.294 -35.4,3.62 -35.4,9.979c-0,0 3.748,123.033 1,160c-1.601,21.54 -9.779,46.341 -17.485,61.801c-2.881,5.779 -14.815,22.852 -27.496,32.464c-16.85,12.773 -35.019,17.735 -35.019,17.735" style="fill:none;fill-rule:nonzero;stroke:#4a5568;stroke-width:1px;stroke-dasharray:3,3;"/><g transform="matrix(-3.82857e-16,-1,1,-3.82857e-16,152,382)"><text x="215.826px" y="115px" style="font-family:'Menlo-Regular', 'Menlo', monospace;font-size:8.5px;fill:#7a8ba5;">reads logs</text></g><g><g><path d="M206.984,379l0,32c0,2.208 -1.792,4 -4,4l-141.984,0c-2.208,0 -4,-1.792 -4,-4l0,-32c0,-2.208 1.792,-4 4,-4l141.984,0c2.208,0 4,1.792 4,4Z" style="fill:#e6e6e6;stroke:#3d4663;stroke-width:1.62px;stroke-dasharray:6.48,4.86;"/><g transform="matrix(1,0,0,0.91105,0,34.7796)"><text x="58.78px" y="391px" style="font-family:'Menlo-Regular', 'Menlo', monospace;font-size:10.976px;">.esp-agent/openocd.log</text></g><g transform="matrix(1,0,0,0.91105,0,36.2918)"><text x="102.927px" y="408px" style="font-family:'Menlo-Regular', 'Menlo', monospace;font-size:9.879px;fill:#7a8ba5;">diagnostics</text></g></g></g><path d="M211.5,397.25l-4.5,-2.25l4.5,-2.25l0,4.5Z" style="fill:#4a5568;fill-rule:nonzero;"/><path d="M280,380c-15.156,0 -27.865,10.329 -40.865,12.829c-9.822,1.888 -22.015,2.143 -28.535,2.171" style="fill:none;fill-rule:nonzero;stroke:#4a5568;stroke-width:1px;stroke-dasharray:3,3;"/><path d="M134.749,317.001l-2.25,4.5l-2.25,-4.5l4.5,0Z" style="fill:#4a5568;fill-rule:nonzero;"/><path d="M132.499,281.501l-0,36.4" style="fill:none;fill-rule:nonzero;stroke:#4a5568;stroke-width:1px;stroke-dasharray:3,3;"/><path d="M314.547,102.342l4.453,-2.342l-4.545,-2.157l0.092,4.499Z" style="fill:#4a5568;fill-rule:nonzero;"/><path d="M315.401,100.074c-16.958,0.665 -42.401,5.717 -42.401,11.926c0,0 0.667,148.333 -2,168c-3.328,24.543 -22.5,40.333 -35,53c-9.488,9.614 -28,10 -28,10" style="fill:none;fill-rule:nonzero;stroke:#4a5568;stroke-width:1px;stroke-dasharray:3,3;"/><path d="M424.5,445l-4.5,-9l-4.5,9l9,0Z" style="fill:#ef4444;fill-rule:nonzero;"/><path d="M424.5,501l-4.5,9l-4.5,-9l9,0Z" style="fill:#ef4444;fill-rule:nonzero;"/><path d="M420,443.2l0,59.6" style="fill:none;fill-rule:nonzero;stroke:#ef4444;stroke-width:2px;"/><g transform="matrix(10,0,0,10,447.062,471)"></g><text x="429px" y="471px" style="font-family:'Menlo-Bold', 'Menlo', monospace;font-weight:700;font-size:10px;fill:#ef4444;">USB</text><g><path d="M580,516l0,128c0,3.311 -2.689,6 -6,6l-308,0c-3.311,0 -6,-2.689 -6,-6l0,-128c0,-3.311 2.689,-6 6,-6l308,0c3.311,0 6,2.689 6,6Z" style="fill:#e6e6e6;stroke:#ef4444;stroke-width:3px;"/><g transform="matrix(16,0,0,16,467.586,539)"></g><text x="372.414px" y="539px" style="font-family:'Helvetica';font-size:16px;">ESP32 target</text><path d="M410,558l0,28c0,1.656 -1.344,3 -3,3l-84,0c-1.656,0 -3,-1.344 -3,-3l0,-28c0,-1.656 1.344,-3 3,-3l84,0c1.656,0 3,1.344 3,3Z" style="fill:#e6e6e6;stroke:#000;stroke-width:0.8px;"/><text x="333.543px" y="575px" style="font-family:'Menlo-Regular', 'Menlo', monospace;font-size:9.5px;">RISC-V Core</text><path d="M510,558l0,28c0,1.656 -1.344,3 -3,3l-84,0c-1.656,0 -3,-1.344 -3,-3l0,-28c0,-1.656 1.344,-3 3,-3l84,0c1.656,0 3,1.344 3,3Z" style="fill:#e6e6e6;stroke:#000;stroke-width:0.8px;"/><text x="430.683px" y="569px" style="font-family:'Menlo-Regular', 'Menlo', monospace;font-size:9.5px;">Debug Module</text><text x="442.122px" y="581px" style="font-family:'Menlo-Regular', 'Menlo', monospace;font-size:9.5px;fill:#7a8ba5;">JTAG TAP</text><path d="M410,601l0,28c0,1.656 -1.344,3 -3,3l-129,0c-1.656,0 -3,-1.344 -3,-3l0,-28c0,-1.656 1.344,-3 3,-3l129,0c1.656,0 3,1.344 3,3Z" style="fill:#e6e6e6;stroke:#000;stroke-width:0.8px;"/><g transform="matrix(9.5,0,0,9.5,367.738,612)"></g><text x="316.262px" y="612px" style="font-family:'Menlo-Regular', 'Menlo', monospace;font-size:9.5px;">SPI Flash</text><g transform="matrix(8,0,0,8,279.387,624)"></g><g transform="matrix(8,0,0,8,281.795,624)"></g><text x="279.387px" y="624px" style="font-family:'Menlo-Regular', 'Menlo', monospace;font-size:8px;fill:#7a8ba5;">ﬁrmware + NVS + partitions</text><path d="M565,601l0,28c0,1.656 -1.344,3 -3,3l-139,0c-1.656,0 -3,-1.344 -3,-3l0,-28c0,-1.656 1.344,-3 3,-3l139,0c1.656,0 3,1.344 3,3Z" style="fill:#e6e6e6;stroke:#000;stroke-width:0.8px;"/><g transform="matrix(9.5,0,0,9.5,517.738,612)"></g><text x="466.262px" y="612px" style="font-family:'Menlo-Regular', 'Menlo', monospace;font-size:9.5px;">RAM, MMIO</text><g transform="matrix(8,0,0,8,549.797,624)"></g><text x="434.203px" y="624px" style="font-family:'Menlo-Regular', 'Menlo', monospace;font-size:8px;fill:#7a8ba5;">RTT buffers, peripherals</text></g><g><g><text x="657px" y="535px" style="font-family:'Menlo-Regular', 'Menlo', monospace;font-size:10px;fill:#3d4663;">C<tspan x="663.141px 669.281px 675.422px 681.562px 687.703px 693.843px 699.984px 706.124px 712.265px 718.405px " y="535px 535px 535px 535px 535px 535px 535px 535px 535px 535px ">onnections</tspan></text><path d="M657,550l30,0" style="fill:none;fill-rule:nonzero;stroke:#22c55e;stroke-width:1.5px;"/><text x="693px" y="554px" style="font-family:'Menlo-Regular', 'Menlo', monospace;font-size:9px;fill:#7a8ba5;">Tcl commands (:6666)</text><path d="M657,565l30,0" style="fill:none;fill-rule:nonzero;stroke:#eab308;stroke-width:1.5px;stroke-dasharray:6,3;"/><text x="693px" y="569px" style="font-family:'Menlo-Regular', 'Menlo', monospace;font-size:9px;fill:#7a8ba5;">GDB RSP (:3333)</text><path d="M657,580l30,0" style="fill:none;fill-rule:nonzero;stroke:#ef4444;stroke-width:2px;"/><text x="693px" y="584px" style="font-family:'Menlo-Regular', 'Menlo', monospace;font-size:9px;fill:#7a8ba5;">USB-JTAG (physical)</text><path d="M657,595l30,0" style="fill:none;fill-rule:nonzero;stroke:#3b82f6;stroke-width:1.5px;"/><text x="693px" y="599px" style="font-family:'Menlo-Regular', 'Menlo', monospace;font-size:9px;fill:#7a8ba5;">Shell invocation</text><path d="M657,610l30,0" style="fill:none;fill-rule:nonzero;stroke:#4a5568;stroke-width:1px;stroke-dasharray:3,3;"/><text x="693px" y="614px" style="font-family:'Menlo-Regular', 'Menlo', monospace;font-size:9px;fill:#7a8ba5;">File read/write</text></g></g><g transform="matrix(15,0,0,15,69.663,39)"></g><text x="33px" y="39px" style="font-family:'Menlo-Regular', 'Menlo', monospace;font-size:15px;fill:#3d4663;">H<tspan x="42.211px 51.422px 60.632px " y="39px 39px 39px ">ost</tspan></text></svg>